<svg xmlns="http://www.w3.org/2000/svg" xmlns:xlink="http://www.w3.org/1999/xlink" xmlns:lucid="lucid" width="1160.56" height="1065.19"><g transform="translate(-166.29310557068675 -47.99999999994924)" lucid:page-tab-id="0_0"><path d="M453.15 76c0-4.42 3.58-8 8-8h836.75c4.4 0 8 3.58 8 8v25.16c0 4.4-3.6 8-8 8H461.15c-4.42 0-8-3.6-8-8z" stroke="#000" stroke-opacity="0" stroke-width="2" fill="#fff" fill-opacity="0"/><use xlink:href="#a" transform="matrix(1,0,0,1,457.1465527853429,71.99999999994924) translate(255.2562962962963 25.782777777777778)"/><use xlink:href="#b" transform="matrix(1,0,0,1,457.1465527853429,71.99999999994924) translate(320.22913580246916 25.782777777777778)"/><use xlink:href="#c" transform="matrix(1,0,0,1,457.1465527853429,71.99999999994924) translate(487.3958024691358 25.782777777777778)"/><use xlink:href="#d" transform="matrix(1,0,0,1,457.1465527853429,71.99999999994924) translate(541.1513580246914 25.782777777777778)"/><path d="M592.73 107.8H1174M592.76 107.8h-1.03M1173.97 107.8h1.03" stroke="#000" stroke-opacity="0" stroke-width="2" fill="none"/><path d="M453.15 117.16c0-4.42 3.58-8 8-8h837.7c4.42 0 8 3.58 8 8V120c0 4.42-3.58 8-8 8h-837.7c-4.42 0-8-3.58-8-8z" stroke="#000" stroke-opacity="0" stroke-width="2" fill="#fff" fill-opacity="0"/><use xlink:href="#e" transform="matrix(1,0,0,1,457.1465527853434,113.15522395684805) translate(314.8169958847737 14.917037037037037)"/><use xlink:href="#f" transform="matrix(1,0,0,1,457.1465527853434,113.15522395684805) translate(349.6160699588478 14.917037037037037)"/><use xlink:href="#g" transform="matrix(1,0,0,1,457.1465527853434,113.15522395684805) translate(371.7107201646091 14.917037037037037)"/><use xlink:href="#h" transform="matrix(1,0,0,1,457.1465527853434,113.15522395684805) translate(399.71144032921814 14.917037037037037)"/><use xlink:href="#i" transform="matrix(1,0,0,1,457.1465527853434,113.15522395684805) translate(412.16092592592594 14.917037037037037)"/><use xlink:href="#j" transform="matrix(1,0,0,1,457.1465527853434,113.15522395684805) translate(486.8153497942387 14.917037037037037)"/><use xlink:href="#k" transform="matrix(1,0,0,1,457.1465527853434,113.15522395684805) translate(503.81123456790124 14.917037037037037)"/><path d="M453.15 208c0-4.42 3.58-8 8-8h184c4.4 0 8 3.58 8 8v248c0 4.42-3.6 8-8 8h-184c-4.42 0-8-3.58-8-8z" fill="#fff"/><path d="M453.15 208c0-4.42 3.58-8 8-8h184c4.4 0 8 3.58 8 8v248c0 4.42-3.6 8-8 8h-184c-4.42 0-8-3.58-8-8zM453.15 240h200" stroke="#c92d39" stroke-opacity=".86" fill="none"/><use xlink:href="#l" transform="matrix(1,0,0,1,463.1465527853429,200) translate(73.075 23.6)"/><use xlink:href="#m" transform="matrix(1,0,0,1,458.1465527853429,242.5) translate(0 17.1)"/><use xlink:href="#n" transform="matrix(1,0,0,1,458.1465527853429,242.5) translate(23.95 17.1)"/><use xlink:href="#o" transform="matrix(1,0,0,1,458.1465527853429,274.5) translate(0 17.1)"/><use xlink:href="#p" transform="matrix(1,0,0,1,458.1465527853429,274.5) translate(54.95 17.1)"/><use xlink:href="#q" transform="matrix(1,0,0,1,458.1465527853429,306.5) translate(0 17.1)"/><use xlink:href="#p" transform="matrix(1,0,0,1,458.1465527853429,306.5) translate(52.85000000000001 17.1)"/><use xlink:href="#r" transform="matrix(1,0,0,1,458.1465527853429,338.5) translate(0 17.1)"/><use xlink:href="#p" transform="matrix(1,0,0,1,458.1465527853429,338.5) translate(144.85000000000002 17.1)"/><use xlink:href="#s" transform="matrix(1,0,0,1,458.1465527853429,370.5) translate(0 17.1)"/><use xlink:href="#t" transform="matrix(1,0,0,1,458.1465527853429,370.5) translate(58.900000000000006 17.1)"/><use xlink:href="#u" transform="matrix(1,0,0,1,458.1465527853429,402.5) translate(0 17.1)"/><use xlink:href="#v" transform="matrix(1,0,0,1,458.1465527853429,402.5) translate(94.95 17.1)"/><use xlink:href="#w" transform="matrix(1,0,0,1,458.1465527853429,434.5) translate(0 17.1)"/><use xlink:href="#v" transform="matrix(1,0,0,1,458.1465527853429,434.5) translate(100 17.1)"/><path d="M453.15 488c0-4.42 3.58-8 8-8h184c4.4 0 8 3.58 8 8v152c0 4.42-3.6 8-8 8h-184c-4.42 0-8-3.58-8-8z" fill="#fff"/><path d="M453.15 488c0-4.42 3.58-8 8-8h184c4.4 0 8 3.58 8 8v152c0 4.42-3.6 8-8 8h-184c-4.42 0-8-3.58-8-8zM453.15 520h200" stroke="#c92d39" stroke-opacity=".86" fill="none"/><use xlink:href="#x" transform="matrix(1,0,0,1,463.1465527853434,480) translate(64.575 23.6)"/><use xlink:href="#m" transform="matrix(1,0,0,1,458.1465527853434,522.5) translate(0 17.1)"/><use xlink:href="#n" transform="matrix(1,0,0,1,458.1465527853434,522.5) translate(23.95 17.1)"/><use xlink:href="#o" transform="matrix(1,0,0,1,458.1465527853434,554.5) translate(0 17.1)"/><use xlink:href="#p" transform="matrix(1,0,0,1,458.1465527853434,554.5) translate(54.95 17.1)"/><use xlink:href="#u" transform="matrix(1,0,0,1,458.1465527853434,586.5) translate(0 17.1)"/><use xlink:href="#v" transform="matrix(1,0,0,1,458.1465527853434,586.5) translate(94.95 17.1)"/><use xlink:href="#w" transform="matrix(1,0,0,1,458.1465527853434,618.5) translate(0 17.1)"/><use xlink:href="#v" transform="matrix(1,0,0,1,458.1465527853434,618.5) translate(100 17.1)"/><path d="M800 175.62c0-4.42 3.58-8 8-8h184c4.42 0 8 3.58 8 8v204c0 4.42-3.58 8-8 8H808c-4.42 0-8-3.58-8-8z" fill="#fff"/><path d="M800 175.62c0-4.42 3.58-8 8-8h184c4.42 0 8 3.58 8 8v204c0 4.42-3.58 8-8 8H808c-4.42 0-8-3.58-8-8zM800 207.62h200" stroke="#c92d39" stroke-opacity=".86" fill="none"/><use xlink:href="#y" transform="matrix(1,0,0,1,810,167.62) translate(47.64999999999999 23.6)"/><use xlink:href="#m" transform="matrix(1,0,0,1,805,210.12) translate(0 17.1)"/><use xlink:href="#n" transform="matrix(1,0,0,1,805,210.12) translate(23.95 17.1)"/><use xlink:href="#z" transform="matrix(1,0,0,1,805,242.12) translate(0 17.1)"/><use xlink:href="#n" transform="matrix(1,0,0,1,805,242.12) translate(68.9 17.1)"/><use xlink:href="#A" transform="matrix(1,0,0,1,805,274.12) translate(0 17.1)"/><use xlink:href="#n" transform="matrix(1,0,0,1,805,274.12) translate(87.85 17.1)"/><use xlink:href="#B" transform="matrix(1,0,0,1,805,306.12) translate(0 17.1)"/><use xlink:href="#n" transform="matrix(1,0,0,1,805,306.12) translate(63.85 17.1)"/><use xlink:href="#u" transform="matrix(1,0,0,1,805,338.12) translate(0 17.1)"/><use xlink:href="#v" transform="matrix(1,0,0,1,805,338.12) translate(94.95 17.1)"/><use xlink:href="#w" transform="matrix(1,0,0,1,805,370.12) translate(0 14.4)"/><use xlink:href="#v" transform="matrix(1,0,0,1,805,370.12) translate(100 14.4)"/><path d="M1100 271.97c0-4.42 3.58-8 8-8h184c4.42 0 8 3.58 8 8v152c0 4.42-3.58 8-8 8h-184c-4.42 0-8-3.58-8-8z" fill="#fff"/><path d="M1100 271.97c0-4.42 3.58-8 8-8h184c4.42 0 8 3.58 8 8v152c0 4.42-3.58 8-8 8h-184c-4.42 0-8-3.58-8-8zM1100 303.97h200" stroke="#c92d39" stroke-opacity=".86" fill="none"/><use xlink:href="#C" transform="matrix(1,0,0,1,1110,263.96999999999997) translate(73.025 23.6)"/><use xlink:href="#m" transform="matrix(1,0,0,1,1105,306.46999999999997) translate(0 17.1)"/><use xlink:href="#n" transform="matrix(1,0,0,1,1105,306.46999999999997) translate(23.95 17.1)"/><use xlink:href="#o" transform="matrix(1,0,0,1,1105,338.46999999999997) translate(0 17.1)"/><use xlink:href="#p" transform="matrix(1,0,0,1,1105,338.46999999999997) translate(54.95 17.1)"/><use xlink:href="#u" transform="matrix(1,0,0,1,1105,370.46999999999997) translate(0 17.1)"/><use xlink:href="#v" transform="matrix(1,0,0,1,1105,370.46999999999997) translate(94.95 17.1)"/><use xlink:href="#w" transform="matrix(1,0,0,1,1105,402.46999999999997) translate(0 17.1)"/><use xlink:href="#v" transform="matrix(1,0,0,1,1105,402.46999999999997) translate(100 17.1)"/><path d="M1019.9 319.83h59.6" stroke="#c92d39" stroke-opacity=".86" fill="none"/><path d="M1000.72 309.83l20 10-20 10" stroke="#c92d39" stroke-opacity=".86" fill="#fff" fill-opacity="0"/><path d="M1000.72 319.83h20M1079.5 309.83v20M1099.5 319.83h-20" stroke="#c92d39" stroke-opacity=".86" fill="#fff"/><path d="M453.15 708c0-4.42 3.58-8 8-8h184c4.4 0 8 3.58 8 8v376c0 4.42-3.6 8-8 8h-184c-4.42 0-8-3.58-8-8z" fill="#fff"/><path d="M453.15 708c0-4.42 3.58-8 8-8h184c4.4 0 8 3.58 8 8v376c0 4.42-3.6 8-8 8h-184c-4.42 0-8-3.58-8-8zM453.15 740h200" stroke="#c92d39" stroke-opacity=".86" fill="none"/><use xlink:href="#D" transform="matrix(1,0,0,1,463.1465527853434,700) translate(73.175 23.6)"/><use xlink:href="#m" transform="matrix(1,0,0,1,458.1465527853434,742.5) translate(0 17.1)"/><use xlink:href="#n" transform="matrix(1,0,0,1,458.1465527853434,742.5) translate(23.95 17.1)"/><use xlink:href="#A" transform="matrix(1,0,0,1,458.1465527853434,774.5) translate(0 17.1)"/><use xlink:href="#n" transform="matrix(1,0,0,1,458.1465527853434,774.5) translate(87.85 17.1)"/><use xlink:href="#E" transform="matrix(1,0,0,1,458.1465527853434,806.5) translate(0 17.1)"/><use xlink:href="#p" transform="matrix(1,0,0,1,458.1465527853434,806.5) translate(37.9 17.1)"/><use xlink:href="#F" transform="matrix(1,0,0,1,458.1465527853434,838.5) translate(0 17.1)"/><use xlink:href="#p" transform="matrix(1,0,0,1,458.1465527853434,838.5) translate(54 17.1)"/><use xlink:href="#G" transform="matrix(1,0,0,1,458.1465527853434,870.5) translate(0 17.1)"/><use xlink:href="#n" transform="matrix(1,0,0,1,458.1465527853434,870.5) translate(74.9 17.1)"/><use xlink:href="#H" transform="matrix(1,0,0,1,458.1465527853434,902.5) translate(0 17.1)"/><use xlink:href="#v" transform="matrix(1,0,0,1,458.1465527853434,902.5) translate(77.9 17.1)"/><use xlink:href="#I" transform="matrix(1,0,0,1,458.1465527853434,934.5) translate(0 17.1)"/><use xlink:href="#n" transform="matrix(1,0,0,1,458.1465527853434,934.5) translate(98.85000000000001 17.1)"/><use xlink:href="#J" transform="matrix(1,0,0,1,458.1465527853434,966.5) translate(0 17.1)"/><use xlink:href="#K" transform="matrix(1,0,0,1,458.1465527853434,966.5) translate(81.95 17.1)"/><use xlink:href="#L" transform="matrix(1,0,0,1,458.1465527853434,966.5) translate(105.9 17.1)"/><use xlink:href="#M" transform="matrix(1,0,0,1,458.1465527853434,966.5) translate(131.85 17.1)"/><use xlink:href="#N" transform="matrix(1,0,0,1,458.1465527853434,966.5) translate(151.85 17.1)"/><use xlink:href="#O" transform="matrix(1,0,0,1,458.1465527853434,998.5) translate(0 17.1)"/><use xlink:href="#n" transform="matrix(1,0,0,1,458.1465527853434,998.5) translate(84.9 17.1)"/><use xlink:href="#u" transform="matrix(1,0,0,1,458.1465527853434,1030.5) translate(0 17.1)"/><use xlink:href="#v" transform="matrix(1,0,0,1,458.1465527853434,1030.5) translate(94.95 17.1)"/><use xlink:href="#w" transform="matrix(1,0,0,1,458.1465527853434,1062.5) translate(0 17.1)"/><use xlink:href="#v" transform="matrix(1,0,0,1,458.1465527853434,1062.5) translate(100 17.1)"/><path d="M673.65 1012h8c6.62 0 12-5.37 12-12V756.5c0-.28-.23-.5-.5-.5" stroke="#c92d39" stroke-opacity=".86" fill="none"/><path d="M673.65 1022v-20M653.65 1012h20M663.65 766v-20M653.65 756h20M693.65 756c0 5.52-4.48 10-10 10-5.53 0-10-4.48-10-10s4.47-10 10-10c5.52 0 10 4.48 10 10" stroke="#c92d39" stroke-opacity=".86" fill="#fff"/><path d="M980 717.48c0-4.42 3.58-8 8-8h184c4.42 0 8 3.58 8 8v184c0 4.42-3.58 8-8 8H988c-4.42 0-8-3.58-8-8z" fill="#fff"/><path d="M980 717.48c0-4.42 3.58-8 8-8h184c4.42 0 8 3.58 8 8v184c0 4.42-3.58 8-8 8H988c-4.42 0-8-3.58-8-8zM980 749.48h200" stroke="#c92d39" stroke-opacity=".86" fill="none"/><use xlink:href="#P" transform="matrix(1,0,0,1,990,709.4825136882747) translate(76.675 23.6)"/><use xlink:href="#m" transform="matrix(1,0,0,1,985,751.9825136882747) translate(0 17.1)"/><use xlink:href="#n" transform="matrix(1,0,0,1,985,751.9825136882747) translate(23.95 17.1)"/><use xlink:href="#o" transform="matrix(1,0,0,1,985,783.9825136882747) translate(0 17.1)"/><use xlink:href="#p" transform="matrix(1,0,0,1,985,783.9825136882747) translate(54.95 17.1)"/><use xlink:href="#A" transform="matrix(1,0,0,1,985,815.9825136882747) translate(0 17.1)"/><use xlink:href="#n" transform="matrix(1,0,0,1,985,815.9825136882747) translate(87.85 17.1)"/><use xlink:href="#u" transform="matrix(1,0,0,1,985,847.9825136882747) translate(0 17.1)"/><use xlink:href="#v" transform="matrix(1,0,0,1,985,847.9825136882747) translate(94.95 17.1)"/><use xlink:href="#w" transform="matrix(1,0,0,1,985,879.9825136882747) translate(0 17.1)"/><use xlink:href="#v" transform="matrix(1,0,0,1,985,879.9825136882747) translate(100 17.1)"/><path d="M673.65 535.86h534.85c6.63 0 12 5.37 12 12v269.72c0 6.63-5.37 12-12 12h-8.6" stroke="#c92d39" stroke-opacity=".86" fill="none"/><path d="M673.65 545.86v-20M653.65 535.86h20" stroke="#c92d39" stroke-opacity=".86" fill="#fff"/><path d="M1180.72 819.58l20 10-20 10" stroke="#c92d39" stroke-opacity=".86" fill="#fff" fill-opacity="0"/><path d="M1180.72 829.58h20" stroke="#c92d39" stroke-opacity=".86" fill="#fff"/><path d="M673.65 535.86h40.92c6.63 0 12-5.37 12-12V296.48c0-6.63 5.38-12 12-12h41.52" stroke="#c92d39" stroke-opacity=".86" fill="none"/><path d="M673.65 545.86v-20M653.65 535.86h20" stroke="#c92d39" stroke-opacity=".86" fill="#fff"/><path d="M799.28 294.48l-20-10 20-10" stroke="#c92d39" stroke-opacity=".86" fill="#fff" fill-opacity="0"/><path d="M799.28 284.48h-20" stroke="#c92d39" stroke-opacity=".86" fill="#fff"/><path d="M673.65 255.62H780.1" stroke="#c92d39" stroke-opacity=".86" fill="none"/><path d="M673.65 265.62v-20M653.65 255.62h20" stroke="#c92d39" stroke-opacity=".86" fill="#fff"/><path d="M799.28 265.62l-20-10 20-10" stroke="#c92d39" stroke-opacity=".86" fill="#fff" fill-opacity="0"/><path d="M799.28 255.62h-20" stroke="#c92d39" stroke-opacity=".86" fill="#fff"/><path d="M720 628c0-4.42 3.58-8 8-8h184c4.42 0 8 3.58 8 8v184c0 4.42-3.58 8-8 8H728c-4.42 0-8-3.58-8-8z" fill="#fff"/><path d="M720 628c0-4.42 3.58-8 8-8h184c4.42 0 8 3.58 8 8v184c0 4.42-3.58 8-8 8H728c-4.42 0-8-3.58-8-8zM720 660h200" stroke="#c92d39" stroke-opacity=".86" fill="none"/><g><use xlink:href="#Q" transform="matrix(1,0,0,1,730,620) translate(51.25 23.6)"/></g><g><use xlink:href="#m" transform="matrix(1,0,0,1,725,662.5) translate(0 17.1)"/><use xlink:href="#n" transform="matrix(1,0,0,1,725,662.5) translate(23.95 17.1)"/></g><g><use xlink:href="#A" transform="matrix(1,0,0,1,725,694.5) translate(0 17.1)"/><use xlink:href="#n" transform="matrix(1,0,0,1,725,694.5) translate(87.85 17.1)"/></g><g><use xlink:href="#R" transform="matrix(1,0,0,1,725,726.5) translate(0 17.1)"/><use xlink:href="#n" transform="matrix(1,0,0,1,725,726.5) translate(58.95 17.1)"/></g><g><use xlink:href="#u" transform="matrix(1,0,0,1,725,758.5) translate(0 17.1)"/><use xlink:href="#v" transform="matrix(1,0,0,1,725,758.5) translate(94.95 17.1)"/></g><g><use xlink:href="#w" transform="matrix(1,0,0,1,725,790.5) translate(0 17.1)"/><use xlink:href="#v" transform="matrix(1,0,0,1,725,790.5) translate(100 17.1)"/></g><path d="M673.65 535.86H948.5c6.63 0 12 5.37 12 12v148.08c0 6.63-5.37 12-12 12h-8.6" stroke="#c92d39" stroke-opacity=".86" fill="none"/><path d="M673.65 545.86v-20M653.65 535.86h20" stroke="#c92d39" stroke-opacity=".86" fill="#fff"/><path d="M920.72 697.94l20 10-20 10" stroke="#c92d39" stroke-opacity=".86" fill="#fff" fill-opacity="0"/><path d="M920.72 707.94h20" stroke="#c92d39" stroke-opacity=".86" fill="#fff"/><path d="M673.65 535.86h8c6.62 0 12 5.37 12 12V662c0 6.63-5.38 12-12 12h-257c-6.63 0-12 5.37-12 12v90c0 6.63 5.37 12 12 12h8.58" stroke="#c92d39" stroke-opacity=".86" fill="none"/><path d="M673.65 545.86v-20M653.65 535.86h20" stroke="#c92d39" stroke-opacity=".86" fill="#fff"/><path d="M452.42 798l-20-10 20-10" stroke="#c92d39" stroke-opacity=".86" fill="#fff" fill-opacity="0"/><path d="M452.42 788h-20" stroke="#c92d39" stroke-opacity=".86" fill="#fff"/><path d="M186.3 933.2c0-4.43 3.57-8 8-8h184c4.4 0 8 3.57 8 8v152c0 4.4-3.6 8-8 8h-184c-4.43 0-8-3.6-8-8z" fill="#fff"/><path d="M186.3 933.2c0-4.43 3.57-8 8-8h184c4.4 0 8 3.57 8 8v152c0 4.4-3.6 8-8 8h-184c-4.43 0-8-3.6-8-8zM186.3 965.2h200" stroke="#c92d39" stroke-opacity=".86" fill="none"/><g><use xlink:href="#S" transform="matrix(1,0,0,1,196.29310557068675,925.1918136236336) translate(51.199999999999996 23.6)"/></g><g><use xlink:href="#m" transform="matrix(1,0,0,1,191.29310557068675,967.6918136236336) translate(0 17.1)"/><use xlink:href="#n" transform="matrix(1,0,0,1,191.29310557068675,967.6918136236336) translate(23.95 17.1)"/></g><g><use xlink:href="#o" transform="matrix(1,0,0,1,191.29310557068675,999.6918136236336) translate(0 17.1)"/><use xlink:href="#p" transform="matrix(1,0,0,1,191.29310557068675,999.6918136236336) translate(54.95 17.1)"/></g><g><use xlink:href="#u" transform="matrix(1,0,0,1,191.29310557068675,1031.6918136236336) translate(0 17.1)"/><use xlink:href="#v" transform="matrix(1,0,0,1,191.29310557068675,1031.6918136236336) translate(94.95 17.1)"/></g><g><use xlink:href="#w" transform="matrix(1,0,0,1,191.29310557068675,1063.6918136236336) translate(0 17.1)"/><use xlink:href="#v" transform="matrix(1,0,0,1,191.29310557068675,1063.6918136236336) translate(100 17.1)"/></g><path d="M406.8 981.05h12.4c.28 0 .52-.23.52-.52 0-.3.24-.53.53-.53h12.98" stroke="#c92d39" stroke-opacity=".86" fill="none"/><path d="M406.8 991.05v-20M386.8 981.05h20" stroke="#c92d39" stroke-opacity=".86" fill="#fff"/><path d="M452.42 990l-20-10 20-10" stroke="#c92d39" stroke-opacity=".86" fill="#fff" fill-opacity="0"/><path d="M452.42 980h-20" stroke="#c92d39" stroke-opacity=".86" fill="#fff"/><path d="M959.5 765.26c-5.25 0-9.5-4.25-9.5-9.5v-5.57c0-5.58-4.52-10.1-10.1-10.1" stroke="#c92d39" stroke-opacity=".86" fill="none"/><path d="M959.5 755.26v20M979.5 765.26h-20" stroke="#c92d39" stroke-opacity=".86" fill="#fff"/><path d="M920.72 730.1l20 10-20 10" stroke="#c92d39" stroke-opacity=".86" fill="#fff" fill-opacity="0"/><path d="M920.72 740.1h20" stroke="#c92d39" stroke-opacity=".86" fill="#fff"/><defs><path fill="#a9afb8" d="M136-208V0H84v-208H4v-40h212v40h-80" id="T"/><path fill="#a9afb8" d="M133-34C117-15 103 5 69 4 32 3 11-16 11-54c-1-60 55-63 116-61 1-26-3-47-28-47-18 1-26 9-28 27l-52-2c7-38 36-58 82-57s74 22 75 68l1 82c-1 14 12 18 25 15v27c-30 8-71 5-69-32zm-48 3c29 0 43-24 42-57-32 0-66-3-65 30 0 17 8 27 23 27" id="U"/><path fill="#a9afb8" d="M137-138c1-29-70-34-71-4 15 46 118 7 119 86 1 83-164 76-172 9l43-7c4 19 20 25 44 25 33 8 57-30 24-41C81-84 22-81 20-136c-2-80 154-74 161-7" id="V"/><path fill="#a9afb8" d="M147 0L96-86 75-71V0H25v-261h50v150l67-79h53l-66 74L201 0h-54" id="W"/><g id="a"><use transform="matrix(0.0728395061728395,0,0,0.0728395061728395,0,0)" xlink:href="#T"/><use transform="matrix(0.0728395061728395,0,0,0.0728395061728395,13.985185185185184,0)" xlink:href="#U"/><use transform="matrix(0.0728395061728395,0,0,0.0728395061728395,28.553086419753086,0)" xlink:href="#V"/><use transform="matrix(0.0728395061728395,0,0,0.0728395061728395,43.120987654320984,0)" xlink:href="#W"/></g><path fill="#a9afb8" d="M230 0l2-204L168 0h-37L68-204 70 0H24v-248h70l56 185 57-185h69V0h-46" id="X"/><path fill="#a9afb8" d="M135-194c87-1 58 113 63 194h-50c-7-57 23-157-34-157-59 0-34 97-39 157H25l-1-190h47c2 12-1 28 3 38 12-26 28-41 61-42" id="Y"/><path fill="#a9afb8" d="M195-6C206 82 75 100 31 46c-4-6-6-13-8-21l49-6c3 16 16 24 34 25 40 0 42-37 40-79-11 22-30 35-61 35-53 0-70-43-70-97 0-56 18-96 73-97 30 0 46 14 59 34l2-30h47zm-90-29c32 0 41-27 41-63 0-35-9-62-40-62-32 0-39 29-40 63 0 36 9 62 39 62" id="Z"/><path fill="#a9afb8" d="M185-48c-13 30-37 53-82 52C43 2 14-33 14-96s30-98 90-98c62 0 83 45 84 108H66c0 31 8 55 39 56 18 0 30-7 34-22zm-45-69c5-46-57-63-70-21-2 6-4 13-4 21h74" id="aa"/><path fill="#a9afb8" d="M220-157c-53 9-28 100-34 157h-49v-107c1-27-5-49-29-50C55-147 81-57 75 0H25l-1-190h47c2 12-1 28 3 38 10-53 101-56 108 0 13-22 24-43 59-42 82 1 51 116 57 194h-49v-107c-1-25-5-48-29-50" id="ab"/><path fill="#a9afb8" d="M115-3C79 11 28 4 28-45v-112H4v-33h27l15-45h31v45h36v33H77v99c-1 23 16 31 38 25v30" id="ac"/><g id="b"><use transform="matrix(0.0728395061728395,0,0,0.0728395061728395,0,0)" xlink:href="#X"/><use transform="matrix(0.0728395061728395,0,0,0.0728395061728395,21.77901234567901,0)" xlink:href="#U"/><use transform="matrix(0.0728395061728395,0,0,0.0728395061728395,36.34691358024691,0)" xlink:href="#Y"/><use transform="matrix(0.0728395061728395,0,0,0.0728395061728395,52.29876543209876,0)" xlink:href="#U"/><use transform="matrix(0.0728395061728395,0,0,0.0728395061728395,66.86666666666666,0)" xlink:href="#Z"/><use transform="matrix(0.0728395061728395,0,0,0.0728395061728395,82.81851851851852,0)" xlink:href="#aa"/><use transform="matrix(0.0728395061728395,0,0,0.0728395061728395,97.38641975308641,0)" xlink:href="#ab"/><use transform="matrix(0.0728395061728395,0,0,0.0728395061728395,120.69506172839506,0)" xlink:href="#aa"/><use transform="matrix(0.0728395061728395,0,0,0.0728395061728395,135.26296296296297,0)" xlink:href="#Y"/><use transform="matrix(0.0728395061728395,0,0,0.0728395061728395,151.21481481481482,0)" xlink:href="#ac"/></g><path fill="#a9afb8" d="M135-194c53 0 70 44 70 98 0 56-19 98-73 100-31 1-45-17-59-34 3 33 2 69 2 105H25l-1-265h48c2 10 0 23 3 31 11-24 29-35 60-35zM114-30c33 0 39-31 40-66 0-38-9-64-40-64-56 0-55 130 0 130" id="ad"/><g id="c"><use transform="matrix(0.0728395061728395,0,0,0.0728395061728395,0,0)" xlink:href="#U"/><use transform="matrix(0.0728395061728395,0,0,0.0728395061728395,14.5679012345679,0)" xlink:href="#ad"/><use transform="matrix(0.0728395061728395,0,0,0.0728395061728395,30.51975308641975,0)" xlink:href="#ad"/></g><path fill="#a9afb8" d="M24 0v-248h195v40H76v63h132v40H76v65h150V0H24" id="ae"/><path fill="#a9afb8" d="M240-174c0 40-23 61-54 70L253 0h-59l-57-94H76V0H24v-248c93 4 217-23 216 74zM76-134c48-2 112 12 112-38 0-48-66-32-112-35v73" id="af"/><path fill="#a9afb8" d="M24-248c120-7 223 5 221 122C244-46 201 0 124 0H24v-248zM76-40c74 7 117-18 117-86 0-67-45-88-117-82v168" id="ag"/><g id="d"><use transform="matrix(0.0728395061728395,0,0,0.0728395061728395,0,0)" xlink:href="#ae"/><use transform="matrix(0.0728395061728395,0,0,0.0728395061728395,17.48148148148148,0)" xlink:href="#af"/><use transform="matrix(0.0728395061728395,0,0,0.0728395061728395,36.34691358024691,0)" xlink:href="#ag"/></g><path fill="#a9afb8" d="M195 0l-74-108L45 0H8l94-129-87-119h37l69 98 67-98h37l-84 118L233 0h-38" id="ah"/><path fill="#a9afb8" d="M24-231v-30h32v30H24zM24 0v-190h32V0H24" id="ai"/><path fill="#a9afb8" d="M117-194c89-4 53 116 60 194h-32v-121c0-31-8-49-39-48C34-167 62-67 57 0H25l-1-190h30c1 10-1 24 2 32 11-22 29-35 61-36" id="aj"/><path fill="#a9afb8" d="M177-190C167-65 218 103 67 71c-23-6-38-20-44-43l32-5c15 47 100 32 89-28v-30C133-14 115 1 83 1 29 1 15-40 15-95c0-56 16-97 71-98 29-1 48 16 59 35 1-10 0-23 2-32h30zM94-22c36 0 50-32 50-73 0-42-14-75-50-75-39 0-46 34-46 75s6 73 46 73" id="ak"/><g id="e"><use transform="matrix(0.04248971193415638,0,0,0.04248971193415638,0,0)" xlink:href="#ah"/><use transform="matrix(0.04248971193415638,0,0,0.04248971193415638,10.19753086419753,0)" xlink:href="#ai"/><use transform="matrix(0.04248971193415638,0,0,0.04248971193415638,13.554218106995881,0)" xlink:href="#aj"/><use transform="matrix(0.04248971193415638,0,0,0.04248971193415638,22.05216049382716,0)" xlink:href="#ak"/></g><path fill="#a9afb8" d="M137-103V0h-34v-103L8-248h37l75 118 75-118h37" id="al"/><path fill="#a9afb8" d="M84 4C-5 8 30-112 23-190h32v120c0 31 7 50 39 49 72-2 45-101 50-169h31l1 190h-30c-1-10 1-25-2-33-11 22-28 36-60 37" id="am"/><g id="f"><use transform="matrix(0.04248971193415638,0,0,0.04248971193415638,0,0)" xlink:href="#al"/><use transform="matrix(0.04248971193415638,0,0,0.04248971193415638,9.347736625514402,0)" xlink:href="#am"/></g><path fill="#a9afb8" d="M190 0L58-211 59 0H30v-248h39L202-35l-2-213h31V0h-41" id="an"/><g id="g"><use transform="matrix(0.04248971193415638,0,0,0.04248971193415638,0,0)" xlink:href="#an"/><use transform="matrix(0.04248971193415638,0,0,0.04248971193415638,11.004835390946502,0)" xlink:href="#ak"/></g><path fill="#a9afb8" d="M32 76v-337h29V76H32" id="ao"/><use transform="matrix(0.04248971193415638,0,0,0.04248971193415638,0,0)" xlink:href="#ao" id="h"/><path fill="#a9afb8" d="M30-248c118-7 216 8 213 122C240-48 200 0 122 0H30v-248zM63-27c89 8 146-16 146-99s-60-101-146-95v194" id="ap"/><path fill="#a9afb8" d="M100-194c63 0 86 42 84 106H49c0 40 14 67 53 68 26 1 43-12 49-29l28 8c-11 28-37 45-77 45C44 4 14-33 15-96c1-61 26-98 85-98zm52 81c6-60-76-77-97-28-3 7-6 17-6 28h103" id="aq"/><path fill="#a9afb8" d="M96-169c-40 0-48 33-48 73s9 75 48 75c24 0 41-14 43-38l32 2c-6 37-31 61-74 61-59 0-76-41-82-99-10-93 101-131 147-64 4 7 5 14 7 22l-32 3c-4-21-16-35-41-35" id="ar"/><path fill="#a9afb8" d="M210-169c-67 3-38 105-44 169h-31v-121c0-29-5-50-35-48C34-165 62-65 56 0H25l-1-190h30c1 10-1 24 2 32 10-44 99-50 107 0 11-21 27-35 58-36 85-2 47 119 55 194h-31v-121c0-29-5-49-35-48" id="as"/><path fill="#a9afb8" d="M115-194c53 0 69 39 70 98 0 66-23 100-70 100C84 3 66-7 56-30L54 0H23l1-261h32v101c10-23 28-34 59-34zm-8 174c40 0 45-34 45-75 0-40-5-75-45-74-42 0-51 32-51 76 0 43 10 73 51 73" id="at"/><path fill="#a9afb8" d="M114-163C36-179 61-72 57 0H25l-1-190h30c1 12-1 29 2 39 6-27 23-49 58-41v29" id="au"/><g id="i"><use transform="matrix(0.04248971193415638,0,0,0.04248971193415638,0,0)" xlink:href="#ap"/><use transform="matrix(0.04248971193415638,0,0,0.04248971193415638,11.004835390946502,0)" xlink:href="#aq"/><use transform="matrix(0.04248971193415638,0,0,0.04248971193415638,19.502777777777776,0)" xlink:href="#ar"/><use transform="matrix(0.04248971193415638,0,0,0.04248971193415638,27.150925925925925,0)" xlink:href="#aq"/><use transform="matrix(0.04248971193415638,0,0,0.04248971193415638,35.6488683127572,0)" xlink:href="#as"/><use transform="matrix(0.04248971193415638,0,0,0.04248971193415638,48.35329218106995,0)" xlink:href="#at"/><use transform="matrix(0.04248971193415638,0,0,0.04248971193415638,56.851234567901244,0)" xlink:href="#aq"/><use transform="matrix(0.04248971193415638,0,0,0.04248971193415638,65.34917695473251,0)" xlink:href="#au"/></g><path fill="#a9afb8" d="M110-160c48 1 74 30 74 79 0 53-28 85-80 85-65 0-83-55-86-122-5-90 50-162 133-122 14 7 22 21 27 39l-31 6c-5-40-67-38-82-6-9 19-15 44-15 74 11-20 30-34 60-33zm-7 138c34 0 49-23 49-58s-16-56-50-56c-29 0-50 16-49 49 1 36 15 65 50 65" id="av"/><path fill="#a9afb8" d="M68-38c1 34 0 65-14 84H32c9-13 17-26 17-46H33v-38h35" id="aw"/><g id="j"><use transform="matrix(0.04248971193415638,0,0,0.04248971193415638,0,0)" xlink:href="#av"/><use transform="matrix(0.04248971193415638,0,0,0.04248971193415638,8.497942386831275,0)" xlink:href="#aw"/></g><path fill="#a9afb8" d="M101-251c82-7 93 87 43 132L82-64C71-53 59-42 53-27h129V0H18c2-99 128-94 128-182 0-28-16-43-45-43s-46 15-49 41l-32-3c6-41 34-60 81-64" id="ax"/><path fill="#a9afb8" d="M101-251c68 0 85 55 85 127S166 4 100 4C33 4 14-52 14-124c0-73 17-127 87-127zm-1 229c47 0 54-49 54-102s-4-102-53-102c-51 0-55 48-55 102 0 53 5 102 54 102" id="ay"/><path fill="#a9afb8" d="M27 0v-27h64v-190l-56 39v-29l58-41h29v221h61V0H27" id="az"/><g id="k"><use transform="matrix(0.04248971193415638,0,0,0.04248971193415638,0,0)" xlink:href="#ax"/><use transform="matrix(0.04248971193415638,0,0,0.04248971193415638,8.497942386831275,0)" xlink:href="#ay"/><use transform="matrix(0.04248971193415638,0,0,0.04248971193415638,16.99588477366255,0)" xlink:href="#ax"/><use transform="matrix(0.04248971193415638,0,0,0.04248971193415638,25.493827160493822,0)" xlink:href="#az"/></g><path fill="#333" d="M134-16c44-1 70-21 70-64v-142l-32-4v-10h80v10l-30 4v141c0 57-33 84-91 85-58 0-93-26-93-82v-144l-30-4v-10h94v10l-30 4c7 82-31 209 62 206" id="aA"/><path fill="#333" d="M41-130c7 48 86 23 86 84 0 56-69 57-112 41v-40c20 0 9 29 31 31 35 19 77-26 41-50-27-18-72-13-72-59 0-50 58-52 100-41v36c-19 1-8-25-28-25-21-7-50-1-46 23" id="aB"/><path fill="#333" d="M84-170c49 0 66 33 63 87H46c-8 60 38 80 95 63v10C128-2 108 4 88 4 34 4 14-29 14-84c-1-54 22-86 70-86zm33 73c12-57-57-82-69-24-1 7-2 15-2 24h71" id="aC"/><path fill="#333" d="M57-145c16-10 35-24 60-25v45c-19 1-8-30-40-17l-20 6v124l29 4v8H7v-8l21-4v-141c-8-3-24 2-21-12h48" id="aD"/><g id="l"><use transform="matrix(0.05,0,0,0.05,0,0)" xlink:href="#aA"/><use transform="matrix(0.05,0,0,0.05,12.950000000000001,0)" xlink:href="#aB"/><use transform="matrix(0.05,0,0,0.05,19.950000000000003,0)" xlink:href="#aC"/><use transform="matrix(0.05,0,0,0.05,27.900000000000002,0)" xlink:href="#aD"/></g><path d="M24-231v-30h32v30H24zM24 0v-190h32V0H24" id="aE"/><path d="M85-194c31 0 48 13 60 33l-1-100h32l1 261h-30c-2-10 0-23-3-31C134-8 116 4 85 4 32 4 16-35 15-94c0-66 23-100 70-100zm9 24c-40 0-46 34-46 75 0 40 6 74 45 74 42 0 51-32 51-76 0-42-9-74-50-73" id="aF"/><path d="M33-154v-36h34v36H33zM33 0v-36h34V0H33" id="aG"/><g id="m"><use transform="matrix(0.05,0,0,0.05,0,0)" xlink:href="#aE"/><use transform="matrix(0.05,0,0,0.05,3.95,0)" xlink:href="#aF"/><use transform="matrix(0.05,0,0,0.05,13.949999999999998,0)" xlink:href="#aG"/></g><path d="M117-194c89-4 53 116 60 194h-32v-121c0-31-8-49-39-48C34-167 62-67 57 0H25l-1-190h30c1 10-1 24 2 32 11-22 29-35 61-36" id="aH"/><path d="M59-47c-2 24 18 29 38 22v24C64 9 27 4 27-40v-127H5v-23h24l9-43h21v43h35v23H59v120" id="aI"/><g id="n"><use transform="matrix(0.05,0,0,0.05,0,0)" xlink:href="#aE"/><use transform="matrix(0.05,0,0,0.05,3.95,0)" xlink:href="#aH"/><use transform="matrix(0.05,0,0,0.05,13.949999999999998,0)" xlink:href="#aI"/></g><path d="M141-36C126-15 110 5 73 4 37 3 15-17 15-53c-1-64 63-63 125-63 3-35-9-54-41-54-24 1-41 7-42 31l-33-3c5-37 33-52 76-52 45 0 72 20 72 64v82c-1 20 7 32 28 27v20c-31 9-61-2-59-35zM48-53c0 20 12 33 32 33 41-3 63-29 60-74-43 2-92-5-92 41" id="aJ"/><path d="M210-169c-67 3-38 105-44 169h-31v-121c0-29-5-50-35-48C34-165 62-65 56 0H25l-1-190h30c1 10-1 24 2 32 10-44 99-50 107 0 11-21 27-35 58-36 85-2 47 119 55 194h-31v-121c0-29-5-49-35-48" id="aK"/><path d="M100-194c63 0 86 42 84 106H49c0 40 14 67 53 68 26 1 43-12 49-29l28 8c-11 28-37 45-77 45C44 4 14-33 15-96c1-61 26-98 85-98zm52 81c6-60-76-77-97-28-3 7-6 17-6 28h103" id="aL"/><g id="o"><use transform="matrix(0.05,0,0,0.05,0,0)" xlink:href="#aH"/><use transform="matrix(0.05,0,0,0.05,10,0)" xlink:href="#aJ"/><use transform="matrix(0.05,0,0,0.05,20,0)" xlink:href="#aK"/><use transform="matrix(0.05,0,0,0.05,34.95,0)" xlink:href="#aL"/><use transform="matrix(0.05,0,0,0.05,44.95,0)" xlink:href="#aG"/></g><path d="M135-143c-3-34-86-38-87 0 15 53 115 12 119 90S17 21 10-45l28-5c4 36 97 45 98 0-10-56-113-15-118-90-4-57 82-63 122-42 12 7 21 19 24 35" id="aM"/><path d="M114-163C36-179 61-72 57 0H25l-1-190h30c1 12-1 29 2 39 6-27 23-49 58-41v29" id="aN"/><path d="M177-190C167-65 218 103 67 71c-23-6-38-20-44-43l32-5c15 47 100 32 89-28v-30C133-14 115 1 83 1 29 1 15-40 15-95c0-56 16-97 71-98 29-1 48 16 59 35 1-10 0-23 2-32h30zM94-22c36 0 50-32 50-73 0-42-14-75-50-75-39 0-46 34-46 75s6 73 46 73" id="aO"/><g id="p"><use transform="matrix(0.05,0,0,0.05,0,0)" xlink:href="#aM"/><use transform="matrix(0.05,0,0,0.05,9,0)" xlink:href="#aI"/><use transform="matrix(0.05,0,0,0.05,14,0)" xlink:href="#aN"/><use transform="matrix(0.05,0,0,0.05,19.95,0)" xlink:href="#aE"/><use transform="matrix(0.05,0,0,0.05,23.9,0)" xlink:href="#aH"/><use transform="matrix(0.05,0,0,0.05,33.9,0)" xlink:href="#aO"/></g><path d="M24 0v-261h32V0H24" id="aP"/><g id="q"><use transform="matrix(0.05,0,0,0.05,0,0)" xlink:href="#aL"/><use transform="matrix(0.05,0,0,0.05,10,0)" xlink:href="#aK"/><use transform="matrix(0.05,0,0,0.05,24.950000000000003,0)" xlink:href="#aJ"/><use transform="matrix(0.05,0,0,0.05,34.95,0)" xlink:href="#aE"/><use transform="matrix(0.05,0,0,0.05,38.900000000000006,0)" xlink:href="#aP"/><use transform="matrix(0.05,0,0,0.05,42.85000000000001,0)" xlink:href="#aG"/></g><path d="M115-194c55 1 70 41 70 98S169 2 115 4C84 4 66-9 55-30l1 105H24l-1-265h31l2 30c10-21 28-34 59-34zm-8 174c40 0 45-34 45-75s-6-73-45-74c-42 0-51 32-51 76 0 43 10 73 51 73" id="aQ"/><path d="M206 0h-36l-40-164L89 0H53L-1-190h32L70-26l43-164h34l41 164 42-164h31" id="aR"/><path d="M100-194c62-1 85 37 85 99 1 63-27 99-86 99S16-35 15-95c0-66 28-99 85-99zM99-20c44 1 53-31 53-75 0-43-8-75-51-75s-53 32-53 75 10 74 51 75" id="aS"/><path d="M-5 72V49h209v23H-5" id="aT"/><g id="r"><use transform="matrix(0.05,0,0,0.05,0,0)" xlink:href="#aQ"/><use transform="matrix(0.05,0,0,0.05,10,0)" xlink:href="#aJ"/><use transform="matrix(0.05,0,0,0.05,20,0)" xlink:href="#aM"/><use transform="matrix(0.05,0,0,0.05,29,0)" xlink:href="#aM"/><use transform="matrix(0.05,0,0,0.05,38,0)" xlink:href="#aR"/><use transform="matrix(0.05,0,0,0.05,50.95,0)" xlink:href="#aS"/><use transform="matrix(0.05,0,0,0.05,60.95,0)" xlink:href="#aN"/><use transform="matrix(0.05,0,0,0.05,66.9,0)" xlink:href="#aF"/><use transform="matrix(0.05,0,0,0.05,76.9,0)" xlink:href="#aT"/><use transform="matrix(0.05,0,0,0.05,86.9,0)" xlink:href="#aF"/><use transform="matrix(0.05,0,0,0.05,96.9,0)" xlink:href="#aE"/><use transform="matrix(0.05,0,0,0.05,100.85000000000001,0)" xlink:href="#aO"/><use transform="matrix(0.05,0,0,0.05,110.85000000000001,0)" xlink:href="#aL"/><use transform="matrix(0.05,0,0,0.05,120.85000000000001,0)" xlink:href="#aM"/><use transform="matrix(0.05,0,0,0.05,129.85000000000002,0)" xlink:href="#aI"/><use transform="matrix(0.05,0,0,0.05,134.85000000000002,0)" xlink:href="#aG"/></g><g id="s"><use transform="matrix(0.05,0,0,0.05,0,0)" xlink:href="#aJ"/><use transform="matrix(0.05,0,0,0.05,10,0)" xlink:href="#aF"/><use transform="matrix(0.05,0,0,0.05,20,0)" xlink:href="#aK"/><use transform="matrix(0.05,0,0,0.05,34.95,0)" xlink:href="#aE"/><use transform="matrix(0.05,0,0,0.05,38.900000000000006,0)" xlink:href="#aH"/><use transform="matrix(0.05,0,0,0.05,48.900000000000006,0)" xlink:href="#aG"/></g><path d="M115-194c53 0 69 39 70 98 0 66-23 100-70 100C84 3 66-7 56-30L54 0H23l1-261h32v101c10-23 28-34 59-34zm-8 174c40 0 45-34 45-75 0-40-5-75-45-74-42 0-51 32-51 76 0 43 10 73 51 73" id="aU"/><g id="t"><use transform="matrix(0.05,0,0,0.05,0,0)" xlink:href="#aU"/><use transform="matrix(0.05,0,0,0.05,10,0)" xlink:href="#aS"/><use transform="matrix(0.05,0,0,0.05,20,0)" xlink:href="#aS"/><use transform="matrix(0.05,0,0,0.05,30,0)" xlink:href="#aP"/><use transform="matrix(0.05,0,0,0.05,33.95,0)" xlink:href="#aL"/><use transform="matrix(0.05,0,0,0.05,43.95,0)" xlink:href="#aJ"/><use transform="matrix(0.05,0,0,0.05,53.95,0)" xlink:href="#aH"/></g><path d="M96-169c-40 0-48 33-48 73s9 75 48 75c24 0 41-14 43-38l32 2c-6 37-31 61-74 61-59 0-76-41-82-99-10-93 101-131 147-64 4 7 5 14 7 22l-32 3c-4-21-16-35-41-35" id="aV"/><g id="u"><use transform="matrix(0.05,0,0,0.05,0,0)" xlink:href="#aV"/><use transform="matrix(0.05,0,0,0.05,9,0)" xlink:href="#aN"/><use transform="matrix(0.05,0,0,0.05,14.949999999999998,0)" xlink:href="#aL"/><use transform="matrix(0.05,0,0,0.05,24.95,0)" xlink:href="#aJ"/><use transform="matrix(0.05,0,0,0.05,34.95,0)" xlink:href="#aI"/><use transform="matrix(0.05,0,0,0.05,39.95,0)" xlink:href="#aL"/><use transform="matrix(0.05,0,0,0.05,49.95,0)" xlink:href="#aF"/><use transform="matrix(0.05,0,0,0.05,59.95,0)" xlink:href="#aT"/><use transform="matrix(0.05,0,0,0.05,69.95,0)" xlink:href="#aJ"/><use transform="matrix(0.05,0,0,0.05,79.95,0)" xlink:href="#aI"/><use transform="matrix(0.05,0,0,0.05,84.95,0)" xlink:href="#aG"/></g><g id="v"><use transform="matrix(0.05,0,0,0.05,0,0)" xlink:href="#aF"/><use transform="matrix(0.05,0,0,0.05,10,0)" xlink:href="#aJ"/><use transform="matrix(0.05,0,0,0.05,20,0)" xlink:href="#aI"/><use transform="matrix(0.05,0,0,0.05,25,0)" xlink:href="#aL"/><use transform="matrix(0.05,0,0,0.05,35,0)" xlink:href="#aI"/><use transform="matrix(0.05,0,0,0.05,40,0)" xlink:href="#aE"/><use transform="matrix(0.05,0,0,0.05,43.95,0)" xlink:href="#aK"/><use transform="matrix(0.05,0,0,0.05,58.900000000000006,0)" xlink:href="#aL"/></g><path d="M84 4C-5 8 30-112 23-190h32v120c0 31 7 50 39 49 72-2 45-101 50-169h31l1 190h-30c-1-10 1-25-2-33-11 22-28 36-60 37" id="aW"/><g id="w"><use transform="matrix(0.05,0,0,0.05,0,0)" xlink:href="#aW"/><use transform="matrix(0.05,0,0,0.05,10,0)" xlink:href="#aQ"/><use transform="matrix(0.05,0,0,0.05,20,0)" xlink:href="#aF"/><use transform="matrix(0.05,0,0,0.05,30,0)" xlink:href="#aJ"/><use transform="matrix(0.05,0,0,0.05,40,0)" xlink:href="#aI"/><use transform="matrix(0.05,0,0,0.05,45,0)" xlink:href="#aL"/><use transform="matrix(0.05,0,0,0.05,55,0)" xlink:href="#aF"/><use transform="matrix(0.05,0,0,0.05,65,0)" xlink:href="#aT"/><use transform="matrix(0.05,0,0,0.05,75,0)" xlink:href="#aJ"/><use transform="matrix(0.05,0,0,0.05,85,0)" xlink:href="#aI"/><use transform="matrix(0.05,0,0,0.05,90,0)" xlink:href="#aG"/></g><path fill="#333" d="M75-108c48 3 76-12 76-58s-28-57-76-54v112zm111-58c-1 60-46 78-111 74v78l37 5v9H13v-9l28-5v-208l-31-4v-10c81 1 178-14 176 70" id="aX"/><path fill="#333" d="M90-170c52 0 76 32 76 87 0 54-24 87-77 87-51 0-75-34-75-87 0-54 24-87 76-87zM89-10c39 0 46-35 46-73 0-39-7-73-46-73-39 1-44 34-44 73s6 72 44 73" id="aY"/><path fill="#333" d="M50-238c28 0 22 38 0 38-10-2-19-7-19-19s7-18 19-19zM3 58c24 15 35-10 35-42v-169l-25-4v-8h54V7c4 51-28 81-77 66V38C3 36-1 51 3 58" id="aZ"/><path fill="#333" d="M45-84c0 64 52 80 104 63 1 25-30 25-55 25-56 0-80-32-80-88 0-76 62-98 131-80v46h-10c-5-15-4-31-23-35-47-10-67 21-67 69" id="ba"/><path fill="#333" d="M54-38c-1 25 24 26 44 20v12C71 10 25 9 25-35v-115H4c-2-14 14-10 21-15l18-38h11v38h38v15H54v112" id="bb"/><g id="x"><use transform="matrix(0.05,0,0,0.05,0,0)" xlink:href="#aX"/><use transform="matrix(0.05,0,0,0.05,10,0)" xlink:href="#aD"/><use transform="matrix(0.05,0,0,0.05,15.949999999999998,0)" xlink:href="#aY"/><use transform="matrix(0.05,0,0,0.05,24.95,0)" xlink:href="#aZ"/><use transform="matrix(0.05,0,0,0.05,29.950000000000003,0)" xlink:href="#aC"/><use transform="matrix(0.05,0,0,0.05,37.9,0)" xlink:href="#ba"/><use transform="matrix(0.05,0,0,0.05,45.85,0)" xlink:href="#bb"/></g><g id="y"><use transform="matrix(0.05,0,0,0.05,0,0)" xlink:href="#aX"/><use transform="matrix(0.05,0,0,0.05,10,0)" xlink:href="#aD"/><use transform="matrix(0.05,0,0,0.05,15.949999999999998,0)" xlink:href="#aY"/><use transform="matrix(0.05,0,0,0.05,24.95,0)" xlink:href="#aZ"/><use transform="matrix(0.05,0,0,0.05,29.950000000000003,0)" xlink:href="#aC"/><use transform="matrix(0.05,0,0,0.05,37.9,0)" xlink:href="#ba"/><use transform="matrix(0.05,0,0,0.05,45.85,0)" xlink:href="#bb"/><use transform="matrix(0.05,0,0,0.05,50.85,0)" xlink:href="#aA"/><use transform="matrix(0.05,0,0,0.05,63.800000000000004,0)" xlink:href="#aB"/><use transform="matrix(0.05,0,0,0.05,70.80000000000001,0)" xlink:href="#aC"/><use transform="matrix(0.05,0,0,0.05,78.75000000000001,0)" xlink:href="#aD"/></g><g id="z"><use transform="matrix(0.05,0,0,0.05,0,0)" xlink:href="#aW"/><use transform="matrix(0.05,0,0,0.05,10,0)" xlink:href="#aM"/><use transform="matrix(0.05,0,0,0.05,19,0)" xlink:href="#aL"/><use transform="matrix(0.05,0,0,0.05,29,0)" xlink:href="#aN"/><use transform="matrix(0.05,0,0,0.05,34.95,0)" xlink:href="#aT"/><use transform="matrix(0.05,0,0,0.05,44.95,0)" xlink:href="#aE"/><use transform="matrix(0.05,0,0,0.05,48.900000000000006,0)" xlink:href="#aF"/><use transform="matrix(0.05,0,0,0.05,58.900000000000006,0)" xlink:href="#aG"/></g><path d="M24-231v-30h32v30H24zM-9 49c24 4 33-6 33-30v-209h32V24c2 40-23 58-65 49V49" id="bc"/><g id="A"><use transform="matrix(0.05,0,0,0.05,0,0)" xlink:href="#aQ"/><use transform="matrix(0.05,0,0,0.05,10,0)" xlink:href="#aN"/><use transform="matrix(0.05,0,0,0.05,15.949999999999998,0)" xlink:href="#aS"/><use transform="matrix(0.05,0,0,0.05,25.950000000000003,0)" xlink:href="#bc"/><use transform="matrix(0.05,0,0,0.05,29.899999999999995,0)" xlink:href="#aL"/><use transform="matrix(0.05,0,0,0.05,39.9,0)" xlink:href="#aV"/><use transform="matrix(0.05,0,0,0.05,48.9,0)" xlink:href="#aI"/><use transform="matrix(0.05,0,0,0.05,53.900000000000006,0)" xlink:href="#aT"/><use transform="matrix(0.05,0,0,0.05,63.900000000000006,0)" xlink:href="#aE"/><use transform="matrix(0.05,0,0,0.05,67.85,0)" xlink:href="#aF"/><use transform="matrix(0.05,0,0,0.05,77.85,0)" xlink:href="#aG"/></g><g id="B"><use transform="matrix(0.05,0,0,0.05,0,0)" xlink:href="#aN"/><use transform="matrix(0.05,0,0,0.05,5.95,0)" xlink:href="#aS"/><use transform="matrix(0.05,0,0,0.05,15.949999999999998,0)" xlink:href="#aP"/><use transform="matrix(0.05,0,0,0.05,19.9,0)" xlink:href="#aL"/><use transform="matrix(0.05,0,0,0.05,29.899999999999995,0)" xlink:href="#aT"/><use transform="matrix(0.05,0,0,0.05,39.9,0)" xlink:href="#aE"/><use transform="matrix(0.05,0,0,0.05,43.85,0)" xlink:href="#aF"/><use transform="matrix(0.05,0,0,0.05,53.85,0)" xlink:href="#aG"/></g><path fill="#333" d="M199-173c-1 36-21 56-49 65l64 94 26 5v9h-57l-66-103H75v89l35 5v9H13v-9l28-5v-208l-31-4v-10c80 4 190-20 189 63zM75-119c50 2 89-1 89-51 0-49-39-52-89-50v101" id="bd"/><path fill="#333" d="M65-12l28 4v8H7v-8l28-4v-226l-28-4v-8h58v238" id="be"/><g id="C"><use transform="matrix(0.05,0,0,0.05,0,0)" xlink:href="#bd"/><use transform="matrix(0.05,0,0,0.05,12,0)" xlink:href="#aY"/><use transform="matrix(0.05,0,0,0.05,21,0)" xlink:href="#be"/><use transform="matrix(0.05,0,0,0.05,26,0)" xlink:href="#aC"/></g><path fill="#333" d="M55 0v-9l38-5v-207c-22 1-53 0-70 4l-5 37H7v-56h207v56h-12l-5-37-70-3v206l37 5v9H55" id="bf"/><path fill="#333" d="M32-163c41-10 102-14 102 39v112c8 3 24-2 21 12h-45l-4-17C83 13 3 13 13-46c-2-50 45-50 92-51 4-36-5-70-42-56-6 2-12 4-16 6-4 7 0 23-15 20v-36zM42-47c0 41 41 33 63 22v-59c-34 1-63-1-63 37" id="bg"/><path fill="#333" d="M60-80l68-73c-7-3-20 0-17-12h58c3 13-13 9-20 12l-47 48 60 93c7 3 21-1 18 12h-68c-3-12 9-9 15-12L82-83 60-60v48c7 3 21-1 18 12H10v-8l21-4v-226l-24-4v-8h53v170" id="bh"/><g id="D"><use transform="matrix(0.05,0,0,0.05,0,0)" xlink:href="#bf"/><use transform="matrix(0.05,0,0,0.05,9.700000000000001,0)" xlink:href="#bg"/><use transform="matrix(0.05,0,0,0.05,17.650000000000002,0)" xlink:href="#aB"/><use transform="matrix(0.05,0,0,0.05,24.650000000000002,0)" xlink:href="#bh"/></g><g id="E"><use transform="matrix(0.05,0,0,0.05,0,0)" xlink:href="#aI"/><use transform="matrix(0.05,0,0,0.05,5,0)" xlink:href="#aE"/><use transform="matrix(0.05,0,0,0.05,8.95,0)" xlink:href="#aI"/><use transform="matrix(0.05,0,0,0.05,13.949999999999998,0)" xlink:href="#aP"/><use transform="matrix(0.05,0,0,0.05,17.9,0)" xlink:href="#aL"/><use transform="matrix(0.05,0,0,0.05,27.899999999999995,0)" xlink:href="#aG"/></g><g id="F"><use transform="matrix(0.05,0,0,0.05,0,0)" xlink:href="#aH"/><use transform="matrix(0.05,0,0,0.05,10,0)" xlink:href="#aS"/><use transform="matrix(0.05,0,0,0.05,20,0)" xlink:href="#aI"/><use transform="matrix(0.05,0,0,0.05,25,0)" xlink:href="#aL"/><use transform="matrix(0.05,0,0,0.05,35,0)" xlink:href="#aM"/><use transform="matrix(0.05,0,0,0.05,44,0)" xlink:href="#aG"/></g><g id="G"><use transform="matrix(0.05,0,0,0.05,0,0)" xlink:href="#aF"/><use transform="matrix(0.05,0,0,0.05,10,0)" xlink:href="#aW"/><use transform="matrix(0.05,0,0,0.05,20,0)" xlink:href="#aN"/><use transform="matrix(0.05,0,0,0.05,25.950000000000003,0)" xlink:href="#aJ"/><use transform="matrix(0.05,0,0,0.05,35.95,0)" xlink:href="#aI"/><use transform="matrix(0.05,0,0,0.05,40.95,0)" xlink:href="#aE"/><use transform="matrix(0.05,0,0,0.05,44.900000000000006,0)" xlink:href="#aS"/><use transform="matrix(0.05,0,0,0.05,54.900000000000006,0)" xlink:href="#aH"/><use transform="matrix(0.05,0,0,0.05,64.9,0)" xlink:href="#aG"/></g><g id="H"><use transform="matrix(0.05,0,0,0.05,0,0)" xlink:href="#aF"/><use transform="matrix(0.05,0,0,0.05,10,0)" xlink:href="#aL"/><use transform="matrix(0.05,0,0,0.05,20,0)" xlink:href="#aJ"/><use transform="matrix(0.05,0,0,0.05,30,0)" xlink:href="#aF"/><use transform="matrix(0.05,0,0,0.05,40,0)" xlink:href="#aP"/><use transform="matrix(0.05,0,0,0.05,43.95,0)" xlink:href="#aE"/><use transform="matrix(0.05,0,0,0.05,47.900000000000006,0)" xlink:href="#aH"/><use transform="matrix(0.05,0,0,0.05,57.900000000000006,0)" xlink:href="#aL"/><use transform="matrix(0.05,0,0,0.05,67.9,0)" xlink:href="#aG"/></g><g id="I"><use transform="matrix(0.05,0,0,0.05,0,0)" xlink:href="#aE"/><use transform="matrix(0.05,0,0,0.05,3.95,0)" xlink:href="#aK"/><use transform="matrix(0.05,0,0,0.05,18.900000000000002,0)" xlink:href="#aQ"/><use transform="matrix(0.05,0,0,0.05,28.900000000000002,0)" xlink:href="#aS"/><use transform="matrix(0.05,0,0,0.05,38.900000000000006,0)" xlink:href="#aN"/><use transform="matrix(0.05,0,0,0.05,44.85000000000001,0)" xlink:href="#aI"/><use transform="matrix(0.05,0,0,0.05,49.85000000000001,0)" xlink:href="#aJ"/><use transform="matrix(0.05,0,0,0.05,59.85,0)" xlink:href="#aH"/><use transform="matrix(0.05,0,0,0.05,69.85000000000001,0)" xlink:href="#aV"/><use transform="matrix(0.05,0,0,0.05,78.85000000000001,0)" xlink:href="#aL"/><use transform="matrix(0.05,0,0,0.05,88.85000000000001,0)" xlink:href="#aG"/></g><g id="J"><use transform="matrix(0.05,0,0,0.05,0,0)" xlink:href="#aM"/><use transform="matrix(0.05,0,0,0.05,9,0)" xlink:href="#aI"/><use transform="matrix(0.05,0,0,0.05,14,0)" xlink:href="#aJ"/><use transform="matrix(0.05,0,0,0.05,24,0)" xlink:href="#aI"/><use transform="matrix(0.05,0,0,0.05,29,0)" xlink:href="#aW"/><use transform="matrix(0.05,0,0,0.05,39,0)" xlink:href="#aM"/><use transform="matrix(0.05,0,0,0.05,48,0)" xlink:href="#aT"/><use transform="matrix(0.05,0,0,0.05,58,0)" xlink:href="#aE"/><use transform="matrix(0.05,0,0,0.05,61.95,0)" xlink:href="#aF"/><use transform="matrix(0.05,0,0,0.05,71.95,0)" xlink:href="#aG"/></g><g id="K"><use transform="matrix(0.05,0,0,0.05,0,0)" xlink:href="#aE"/><use transform="matrix(0.05,0,0,0.05,3.95,0)" xlink:href="#aH"/><use transform="matrix(0.05,0,0,0.05,13.949999999999998,0)" xlink:href="#aI"/></g><path d="M87 75C49 33 22-17 22-94c0-76 28-126 65-167h31c-38 41-64 92-64 168S80 34 118 75H87" id="bi"/><path d="M101-251c68 0 85 55 85 127S166 4 100 4C33 4 14-52 14-124c0-73 17-127 87-127zm-1 229c47 0 54-49 54-102s-4-102-53-102c-51 0-55 48-55 102 0 53 5 102 54 102" id="bj"/><path d="M68-38c1 34 0 65-14 84H32c9-13 17-26 17-46H33v-38h35" id="bk"/><g id="L"><use transform="matrix(0.05,0,0,0.05,0,0)" xlink:href="#bi"/><use transform="matrix(0.05,0,0,0.05,5.95,0)" xlink:href="#bj"/><use transform="matrix(0.05,0,0,0.05,15.949999999999998,0)" xlink:href="#bk"/></g><path d="M27 0v-27h64v-190l-56 39v-29l58-41h29v221h61V0H27" id="bl"/><g id="M"><use transform="matrix(0.05,0,0,0.05,0,0)" xlink:href="#bl"/><use transform="matrix(0.05,0,0,0.05,10,0)" xlink:href="#bk"/></g><path d="M101-251c82-7 93 87 43 132L82-64C71-53 59-42 53-27h129V0H18c2-99 128-94 128-182 0-28-16-43-45-43s-46 15-49 41l-32-3c6-41 34-60 81-64" id="bm"/><path d="M33-261c38 41 65 92 65 168S71 34 33 75H2C39 34 66-17 66-93S39-220 2-261h31" id="bn"/><g id="N"><use transform="matrix(0.05,0,0,0.05,0,0)" xlink:href="#bm"/><use transform="matrix(0.05,0,0,0.05,10,0)" xlink:href="#bn"/></g><g id="O"><use transform="matrix(0.05,0,0,0.05,0,0)" xlink:href="#aQ"/><use transform="matrix(0.05,0,0,0.05,10,0)" xlink:href="#aJ"/><use transform="matrix(0.05,0,0,0.05,20,0)" xlink:href="#aN"/><use transform="matrix(0.05,0,0,0.05,25.950000000000003,0)" xlink:href="#aL"/><use transform="matrix(0.05,0,0,0.05,35.95,0)" xlink:href="#aH"/><use transform="matrix(0.05,0,0,0.05,45.95,0)" xlink:href="#aI"/><use transform="matrix(0.05,0,0,0.05,50.95,0)" xlink:href="#aT"/><use transform="matrix(0.05,0,0,0.05,60.95,0)" xlink:href="#aE"/><use transform="matrix(0.05,0,0,0.05,64.9,0)" xlink:href="#aF"/><use transform="matrix(0.05,0,0,0.05,74.9,0)" xlink:href="#aG"/></g><path fill="#333" d="M141-152c28 39 5 97-54 97-9 0-20-2-27-3L49-35c29 22 130-14 124 52-4 45-38 57-88 61C21 83-8 26 45-2 33-6 22-15 21-31l28-31c-19-9-28-26-28-51-2-51 53-65 100-52l38-20 7 8zM85 64c35 0 61-11 61-42 0-35-57-17-89-21-9 8-16 19-17 34 0 25 19 29 45 29zM52-113c1 26 7 46 35 44 28-1 34-16 35-44 0-26-6-43-34-43s-36 17-36 43" id="bo"/><g id="P"><use transform="matrix(0.05,0,0,0.05,0,0)" xlink:href="#bf"/><use transform="matrix(0.05,0,0,0.05,9.700000000000001,0)" xlink:href="#bg"/><use transform="matrix(0.05,0,0,0.05,17.650000000000002,0)" xlink:href="#bo"/></g><g id="Q"><use transform="matrix(0.05,0,0,0.05,0,0)" xlink:href="#aX"/><use transform="matrix(0.05,0,0,0.05,10,0)" xlink:href="#aD"/><use transform="matrix(0.05,0,0,0.05,15.949999999999998,0)" xlink:href="#aY"/><use transform="matrix(0.05,0,0,0.05,24.95,0)" xlink:href="#aZ"/><use transform="matrix(0.05,0,0,0.05,29.950000000000003,0)" xlink:href="#aC"/><use transform="matrix(0.05,0,0,0.05,37.9,0)" xlink:href="#ba"/><use transform="matrix(0.05,0,0,0.05,45.85,0)" xlink:href="#bb"/><use transform="matrix(0.05,0,0,0.05,50.85,0)" xlink:href="#bf"/><use transform="matrix(0.05,0,0,0.05,60.550000000000004,0)" xlink:href="#bg"/><use transform="matrix(0.05,0,0,0.05,68.5,0)" xlink:href="#bo"/></g><g id="R"><use transform="matrix(0.05,0,0,0.05,0,0)" xlink:href="#aI"/><use transform="matrix(0.05,0,0,0.05,5,0)" xlink:href="#aJ"/><use transform="matrix(0.05,0,0,0.05,15,0)" xlink:href="#aO"/><use transform="matrix(0.05,0,0,0.05,25,0)" xlink:href="#aT"/><use transform="matrix(0.05,0,0,0.05,35,0)" xlink:href="#aE"/><use transform="matrix(0.05,0,0,0.05,38.95,0)" xlink:href="#aF"/><use transform="matrix(0.05,0,0,0.05,48.95,0)" xlink:href="#aG"/></g><path fill="#333" d="M178-68c0 79-95 82-154 59v-54h12c1 35 22 52 60 52 50 0 69-58 33-82-39-24-105-21-105-85 0-67 86-66 142-53v49h-12l-6-29c-31-27-121-7-89 42 28 43 119 24 119 101" id="bp"/><path fill="#333" d="M124-13C89 8 26 15 26-45v-108c-8-3-24 2-21-12h50v118c-3 37 42 32 69 25v-131l-25-4v-8h54v153c8 3 24-2 21 12h-48" id="bq"/><g id="S"><use transform="matrix(0.05,0,0,0.05,0,0)" xlink:href="#bf"/><use transform="matrix(0.05,0,0,0.05,9.700000000000001,0)" xlink:href="#bg"/><use transform="matrix(0.05,0,0,0.05,17.650000000000002,0)" xlink:href="#aB"/><use transform="matrix(0.05,0,0,0.05,24.650000000000002,0)" xlink:href="#bh"/><use transform="matrix(0.05,0,0,0.05,33.650000000000006,0)" xlink:href="#bp"/><use transform="matrix(0.05,0,0,0.05,43.650000000000006,0)" xlink:href="#bb"/><use transform="matrix(0.05,0,0,0.05,48.650000000000006,0)" xlink:href="#bg"/><use transform="matrix(0.05,0,0,0.05,56.6,0)" xlink:href="#bb"/><use transform="matrix(0.05,0,0,0.05,61.6,0)" xlink:href="#bq"/><use transform="matrix(0.05,0,0,0.05,70.60000000000001,0)" xlink:href="#aB"/></g></defs></g></svg>